<svg xmlns="http://www.w3.org/2000/svg" width="3200" height="5200" viewBox="0 0 3200 5200">
  <defs>
    <style>
      .bg { fill: #eef2f1; }
      .frame { fill: #f7f9f8; stroke: #dfe6e3; stroke-width: 2; }
      .surface { fill: #ffffff; }
      .line { stroke: #dce4e1; stroke-width: 2; }
      .green { fill: #087f5b; }
      .green2 { fill: #0b624a; }
      .mint { fill: #dff3eb; }
      .yellow { fill: #f4b942; }
      .yellow-soft { fill: #fff3cf; }
      .coral { fill: #e76f51; }
      .coral-soft { fill: #fde7e1; }
      .blue-soft { fill: #e4eefc; }
      .text { fill: #17202a; font-family: Inter, Arial, sans-serif; }
      .muted { fill: #64716d; font-family: Inter, Arial, sans-serif; }
      .white { fill: #ffffff; font-family: Inter, Arial, sans-serif; }
      .h1 { font-size: 42px; font-weight: 750; letter-spacing: 0; }
      .h2 { font-size: 27px; font-weight: 720; letter-spacing: 0; }
      .h3 { font-size: 18px; font-weight: 700; letter-spacing: 0; }
      .body { font-size: 15px; font-weight: 450; letter-spacing: 0; }
      .small { font-size: 12px; font-weight: 550; letter-spacing: 0; }
      .tiny { font-size: 10px; font-weight: 600; letter-spacing: 0; }
      .shadow { filter: drop-shadow(0 8px 18px rgba(23,32,42,.08)); }
    </style>
  </defs>

  <rect class="bg" width="3200" height="5200"/>

  <!-- HOME DESKTOP -->
  <g id="Desktop-Accueil" transform="translate(80 80)">
    <rect class="frame shadow" width="1440" height="1180" rx="8"/>
    <rect class="surface" width="1440" height="76" rx="8"/>
    <rect class="green" x="42" y="22" width="34" height="34" rx="7"/>
    <path d="M50 40h18M59 31v18" stroke="#fff" stroke-width="4" stroke-linecap="round"/>
    <text class="text h3" x="88" y="46">OpportuniTech</text>
    <text class="muted body" x="790" y="45">Accueil</text>
    <text class="muted body" x="870" y="45">Opportunités</text>
    <text class="muted body" x="980" y="45">Publier</text>
    <rect class="mint" x="1120" y="18" width="112" height="40" rx="6"/>
    <text class="green small" x="1148" y="43">Connexion</text>
    <rect class="green" x="1244" y="18" width="148" height="40" rx="6"/>
    <text class="white small" x="1272" y="43">Créer un compte</text>

    <rect class="green2" x="0" y="76" width="1440" height="410"/>
    <circle cx="1280" cy="180" r="120" fill="#0f7255"/>
    <circle cx="1350" cy="350" r="78" fill="#0a5944"/>
    <text class="white small" x="72" y="136">OPPORTUNITÉS AU CAMEROUN ET À L'INTERNATIONAL</text>
    <text class="white h1" x="72" y="205">Construisez la prochaine étape</text>
    <text class="white h1" x="72" y="257">de votre parcours.</text>
    <text class="white body" x="72" y="306">Emplois, stages, formations, bourses et concours réunis au même endroit.</text>

    <rect class="surface shadow" x="72" y="350" width="850" height="68" rx="8"/>
    <circle cx="108" cy="384" r="10" fill="none" stroke="#64716d" stroke-width="2"/>
    <path d="M115 391l8 8" stroke="#64716d" stroke-width="2"/>
    <text class="muted body" x="142" y="390">Métier, compétence ou mot-clé</text>
    <line class="line" x1="550" y1="365" x2="550" y2="403"/>
    <text class="muted body" x="578" y="390">Tout le Cameroun</text>
    <rect class="yellow" x="748" y="358" width="162" height="52" rx="6"/>
    <text class="text small" x="790" y="389">Rechercher</text>

    <text class="text h2" x="72" y="548">Explorer par type</text>
    <text class="muted body" x="72" y="578">Accédez rapidement aux opportunités qui vous concernent.</text>
    <g transform="translate(72 610)">
      <rect class="surface shadow" width="240" height="126" rx="8"/>
      <rect class="mint" x="20" y="20" width="42" height="42" rx="7"/>
      <text class="green h3" x="78" y="42">Emplois</text>
      <text class="muted small" x="78" y="62">149 opportunités</text>
      <text class="muted small" x="20" y="101">CDI, CDD, missions et consultance</text>
    </g>
    <g transform="translate(330 610)">
      <rect class="surface shadow" width="240" height="126" rx="8"/>
      <rect class="blue-soft" x="20" y="20" width="42" height="42" rx="7"/>
      <text class="text h3" x="78" y="42">Stages</text>
      <text class="muted small" x="78" y="62">13 opportunités</text>
      <text class="muted small" x="20" y="101">Stages académiques et professionnels</text>
    </g>
    <g transform="translate(588 610)">
      <rect class="surface shadow" width="240" height="126" rx="8"/>
      <rect class="yellow-soft" x="20" y="20" width="42" height="42" rx="7"/>
      <text class="text h3" x="78" y="42">Bourses</text>
      <text class="muted small" x="78" y="62">59 opportunités</text>
      <text class="muted small" x="20" y="101">Études, recherche et mobilité</text>
    </g>
    <g transform="translate(846 610)">
      <rect class="surface shadow" width="240" height="126" rx="8"/>
      <rect class="coral-soft" x="20" y="20" width="42" height="42" rx="7"/>
      <text class="text h3" x="78" y="42">Concours</text>
      <text class="muted small" x="78" y="62">6 opportunités</text>
      <text class="muted small" x="20" y="101">Écoles, fonction publique et examens</text>
    </g>
    <g transform="translate(1104 610)">
      <rect class="surface shadow" width="264" height="126" rx="8"/>
      <rect fill="#e9e4f7" x="20" y="20" width="42" height="42" rx="7"/>
      <text class="text h3" x="78" y="42">Formations</text>
      <text class="muted small" x="78" y="62">87 opportunités</text>
      <text class="muted small" x="20" y="101">Compétences et certifications</text>
    </g>

    <text class="text h2" x="72" y="814">Dernières opportunités</text>
    <text class="green small" x="1258" y="814">Voir toutes →</text>
    <g transform="translate(72 846)">
      <rect class="surface shadow" width="405" height="258" rx="8"/>
      <rect class="mint" x="24" y="22" width="62" height="62" rx="8"/>
      <text class="green h3" x="45" y="59">EC</text>
      <rect class="mint" x="296" y="24" width="85" height="28" rx="14"/>
      <text class="green tiny" x="316" y="42">EMPLOI</text>
      <text class="text h3" x="24" y="116">Business Developer B2B</text>
      <text class="muted body" x="24" y="142">E-Santé Cameroun · Douala</text>
      <line class="line" x1="24" y1="169" x2="381" y2="169"/>
      <text class="muted small" x="24" y="198">Publié aujourd'hui</text>
      <text class="muted small" x="24" y="222">Commercial · Temps complet</text>
      <text class="green small" x="303" y="222">Voir l'offre →</text>
    </g>
    <g transform="translate(495 846)">
      <rect class="surface shadow" width="405" height="258" rx="8"/>
      <rect class="yellow-soft" x="24" y="22" width="62" height="62" rx="8"/>
      <text class="text h3" x="46" y="59">BO</text>
      <rect class="yellow-soft" x="296" y="24" width="85" height="28" rx="14"/>
      <text class="text tiny" x="314" y="42">BOURSE</text>
      <text class="text h3" x="24" y="116">Bourse Mastercard 2026</text>
      <text class="muted body" x="24" y="142">Infos Concours Education</text>
      <line class="line" x1="24" y1="169" x2="381" y2="169"/>
      <text class="muted small" x="24" y="198">Date limite : 30 juillet 2026</text>
      <text class="muted small" x="24" y="222">Bourse internationale</text>
      <text class="green small" x="303" y="222">Voir l'offre →</text>
    </g>
    <g transform="translate(918 846)">
      <rect class="surface shadow" width="450" height="258" rx="8"/>
      <rect class="coral-soft" x="24" y="22" width="62" height="62" rx="8"/>
      <text class="coral h3" x="45" y="59">CO</text>
      <rect class="coral-soft" x="328" y="24" width="98" height="28" rx="14"/>
      <text class="coral tiny" x="348" y="42">CONCOURS</text>
      <text class="text h3" x="24" y="116">Concours Police Cameroun 2026</text>
      <text class="muted body" x="24" y="142">Infos Concours Education</text>
      <line class="line" x1="24" y1="169" x2="426" y2="169"/>
      <text class="muted small" x="24" y="198">Candidatures ouvertes</text>
      <text class="muted small" x="24" y="222">Fonction publique · Cameroun</text>
      <text class="green small" x="344" y="222">Voir l'offre →</text>
    </g>
  </g>

  <!-- LISTING DESKTOP -->
  <g id="Desktop-Liste" transform="translate(1600 80)">
    <rect class="frame shadow" width="1440" height="1180" rx="8"/>
    <rect class="surface" width="1440" height="76" rx="8"/>
    <rect class="green" x="42" y="22" width="34" height="34" rx="7"/>
    <text class="text h3" x="88" y="46">OpportuniTech</text>
    <text class="muted body" x="1110" y="45">Mes offres</text>
    <rect class="green" x="1230" y="18" width="162" height="40" rx="6"/>
    <text class="white small" x="1262" y="43">Publier une offre</text>

    <text class="text h1" x="64" y="145">Toutes les opportunités</text>
    <text class="muted body" x="64" y="177">344 opportunités vérifiées et classées automatiquement.</text>
    <rect class="surface shadow" x="64" y="214" width="1312" height="84" rx="8"/>
    <rect fill="#f3f6f5" x="84" y="230" width="420" height="52" rx="6"/>
    <text class="muted body" x="112" y="262">Rechercher par titre ou compétence</text>
    <rect fill="#f3f6f5" x="520" y="230" width="210" height="52" rx="6"/>
    <text class="muted body" x="548" y="262">Tous les types</text>
    <text class="muted body" x="700" y="262">⌄</text>
    <rect fill="#f3f6f5" x="746" y="230" width="240" height="52" rx="6"/>
    <text class="muted body" x="774" y="262">Toutes les catégories</text>
    <text class="muted body" x="956" y="262">⌄</text>
    <rect class="green" x="1002" y="230" width="170" height="52" rx="6"/>
    <text class="white small" x="1053" y="262">Filtrer</text>
    <rect class="mint" x="1188" y="230" width="168" height="52" rx="6"/>
    <text class="green small" x="1223" y="262">Réinitialiser</text>

    <text class="muted small" x="64" y="342">TRIER PAR</text>
    <rect class="surface" x="128" y="320" width="178" height="40" rx="6" stroke="#dce4e1"/>
    <text class="text small" x="150" y="345">Plus récentes</text>
    <text class="muted small" x="280" y="345">⌄</text>
    <text class="muted small" x="1214" y="345">Page 1 sur 29</text>

    <g transform="translate(64 386)">
      <rect class="surface shadow" width="1312" height="176" rx="8"/>
      <rect class="mint" x="24" y="24" width="76" height="76" rx="8"/>
      <text class="green h3" x="48" y="68">EC</text>
      <rect class="mint" x="114" y="24" width="82" height="28" rx="14"/>
      <text class="green tiny" x="135" y="42">EMPLOI</text>
      <text class="text h3" x="114" y="82">Comptable confirmé H/F</text>
      <text class="muted body" x="114" y="109">E-Santé Cameroun · Douala · Temps complet</text>
      <text class="muted small" x="114" y="142">Finance · Comptabilité · Publié aujourd'hui</text>
      <rect class="green" x="1134" y="62" width="146" height="48" rx="6"/>
      <text class="white small" x="1172" y="92">Consulter</text>
    </g>
    <g transform="translate(64 580)">
      <rect class="surface shadow" width="1312" height="176" rx="8"/>
      <rect class="blue-soft" x="24" y="24" width="76" height="76" rx="8"/>
      <text class="text h3" x="48" y="68">MJ</text>
      <rect class="blue-soft" x="114" y="24" width="72" height="28" rx="14"/>
      <text class="text tiny" x="134" y="42">STAGE</text>
      <text class="text h3" x="114" y="82">Community Manager · Stage pré-emploi</text>
      <text class="muted body" x="114" y="109">MinaJobs · Yaoundé Centre</text>
      <text class="muted small" x="114" y="142">Marketing · Réseaux sociaux · Publié aujourd'hui</text>
      <rect class="green" x="1134" y="62" width="146" height="48" rx="6"/>
      <text class="white small" x="1172" y="92">Consulter</text>
    </g>
    <g transform="translate(64 774)">
      <rect class="surface shadow" width="1312" height="176" rx="8"/>
      <rect class="yellow-soft" x="24" y="24" width="76" height="76" rx="8"/>
      <text class="text h3" x="48" y="68">KP</text>
      <rect class="yellow-soft" x="114" y="24" width="82" height="28" rx="14"/>
      <text class="text tiny" x="133" y="42">BOURSE</text>
      <text class="text h3" x="114" y="82">GREAT Scholarships 2026–2027</text>
      <text class="muted body" x="114" y="109">Kamerpower · International</text>
      <text class="muted small" x="114" y="142">Bourse universitaire · Date limite disponible sur la source</text>
      <rect class="green" x="1134" y="62" width="146" height="48" rx="6"/>
      <text class="white small" x="1172" y="92">Consulter</text>
    </g>
    <g transform="translate(64 968)">
      <rect class="surface shadow" width="1312" height="128" rx="8"/>
      <rect class="coral-soft" x="24" y="24" width="76" height="76" rx="8"/>
      <text class="coral h3" x="48" y="68">IC</text>
      <text class="text h3" x="114" y="58">Concours administratif direct 2026</text>
      <text class="muted body" x="114" y="86">Infos Concours Education · Cameroun</text>
      <rect class="green" x="1134" y="40" width="146" height="48" rx="6"/>
      <text class="white small" x="1172" y="70">Consulter</text>
    </g>
  </g>

  <!-- DETAIL DESKTOP -->
  <g id="Desktop-Detail" transform="translate(80 1350)">
    <rect class="frame shadow" width="1440" height="1320" rx="8"/>
    <rect class="surface" width="1440" height="76" rx="8"/>
    <rect class="green" x="42" y="22" width="34" height="34" rx="7"/>
    <text class="text h3" x="88" y="46">OpportuniTech</text>
    <text class="muted body" x="1218" y="45">← Retour aux offres</text>

    <rect class="green2" x="0" y="76" width="1440" height="262"/>
    <rect class="mint" x="72" y="126" width="92" height="92" rx="8"/>
    <text class="green h2" x="99" y="184">EC</text>
    <rect class="mint" x="190" y="122" width="84" height="28" rx="14"/>
    <text class="green tiny" x="210" y="140">EMPLOI</text>
    <text class="white h1" x="190" y="202">Business Developer B2B expérimenté</text>
    <text class="white body" x="190" y="240">E-Santé Cameroun · Douala · Temps complet</text>
    <rect class="yellow" x="1184" y="152" width="184" height="54" rx="6"/>
    <text class="text small" x="1227" y="185">Voir la source ↗</text>
    <text class="white small" x="1207" y="244">Publié le 22 juin 2026</text>

    <g transform="translate(72 382)">
      <rect class="surface shadow" width="898" height="850" rx="8"/>
      <text class="text h2" x="36" y="55">À propos de l'opportunité</text>
      <text class="muted body" x="36" y="96">L'entreprise recherche un profil capable de développer son portefeuille B2B,</text>
      <text class="muted body" x="36" y="122">identifier de nouveaux partenaires et accompagner les clients professionnels.</text>
      <text class="text h3" x="36" y="184">Missions principales</text>
      <circle class="green" cx="43" cy="222" r="4"/>
      <text class="muted body" x="60" y="228">Prospecter et qualifier de nouveaux clients professionnels.</text>
      <circle class="green" cx="43" cy="256" r="4"/>
      <text class="muted body" x="60" y="262">Construire des propositions commerciales adaptées.</text>
      <circle class="green" cx="43" cy="290" r="4"/>
      <text class="muted body" x="60" y="296">Suivre les objectifs et documenter les résultats.</text>
      <text class="text h3" x="36" y="358">Profil recherché</text>
      <text class="muted body" x="36" y="394">Expérience en développement commercial, autonomie, aisance relationnelle</text>
      <text class="muted body" x="36" y="420">et bonne compréhension de l'écosystème numérique camerounais.</text>
      <text class="text h3" x="36" y="486">Compétences associées</text>
      <rect class="mint" x="36" y="510" width="105" height="34" rx="17"/>
      <text class="green small" x="60" y="532">Commercial</text>
      <rect class="blue-soft" x="152" y="510" width="104" height="34" rx="17"/>
      <text class="text small" x="177" y="532">Marketing</text>
      <rect class="yellow-soft" x="267" y="510" width="92" height="34" rx="17"/>
      <text class="text small" x="291" y="532">Gestion</text>
      <line class="line" x1="36" y1="590" x2="862" y2="590"/>
      <text class="text h3" x="36" y="640">Source de l'annonce</text>
      <text class="muted body" x="36" y="676">Cette opportunité a été collectée sur Emploi.cm et classée automatiquement.</text>
      <rect class="mint" x="36" y="710" width="192" height="46" rx="6"/>
      <text class="green small" x="67" y="738">Consulter l'annonce ↗</text>
    </g>
    <g transform="translate(998 382)">
      <rect class="surface shadow" width="370" height="410" rx="8"/>
      <text class="text h3" x="28" y="48">Informations clés</text>
      <text class="muted small" x="28" y="94">LOCALISATION</text>
      <text class="text body" x="28" y="121">Douala, Cameroun</text>
      <line class="line" x1="28" y1="146" x2="342" y2="146"/>
      <text class="muted small" x="28" y="182">TYPE</text>
      <text class="text body" x="28" y="209">Emploi · Temps complet</text>
      <line class="line" x1="28" y1="234" x2="342" y2="234"/>
      <text class="muted small" x="28" y="270">ENTREPRISE</text>
      <text class="text body" x="28" y="297">E-Santé Cameroun</text>
      <line class="line" x1="28" y1="322" x2="342" y2="322"/>
      <text class="muted small" x="28" y="358">DATE LIMITE</text>
      <text class="text body" x="28" y="385">Non communiquée</text>
    </g>
    <g transform="translate(998 816)">
      <rect class="green2 shadow" width="370" height="244" rx="8"/>
      <text class="white h3" x="28" y="54">Cette offre vous intéresse ?</text>
      <text class="white body" x="28" y="88">Consultez la source officielle pour</text>
      <text class="white body" x="28" y="112">vérifier les conditions et postuler.</text>
      <rect class="yellow" x="28" y="148" width="314" height="52" rx="6"/>
      <text class="text small" x="110" y="180">Accéder à la source ↗</text>
    </g>
  </g>

  <!-- ADMIN DESKTOP -->
  <g id="Desktop-Admin" transform="translate(1600 1350)">
    <rect class="frame shadow" width="1440" height="1320" rx="8"/>
    <rect class="green2" width="238" height="1320" rx="8"/>
    <rect class="green" x="28" y="28" width="36" height="36" rx="7"/>
    <text class="white h3" x="78" y="53">OpportuniTech</text>
    <text class="white small" x="28" y="112">ADMINISTRATION</text>
    <rect fill="#167a5d" x="16" y="136" width="206" height="48" rx="6"/>
    <text class="white body" x="48" y="166">Vue d'ensemble</text>
    <text class="white body" x="48" y="222">Gestion des offres</text>
    <text class="white body" x="48" y="278">Utilisateurs</text>
    <text class="white body" x="48" y="334">Catégories</text>
    <text class="white body" x="48" y="390">Sources</text>
    <line x1="28" y1="1138" x2="210" y2="1138" stroke="#2e765f"/>
    <text class="white body" x="48" y="1188">Retour au site</text>
    <text class="white body" x="48" y="1244">Déconnexion</text>

    <text class="text h2" x="286" y="62">Tableau de bord</text>
    <text class="muted body" x="286" y="90">Suivez l'activité et gérez les opportunités.</text>
    <rect class="surface" x="1180" y="28" width="206" height="52" rx="7"/>
    <circle class="mint" cx="1212" cy="54" r="18"/>
    <text class="green small" x="1203" y="59">AM</text>
    <text class="text small" x="1242" y="50">Administrateur</text>
    <text class="muted tiny" x="1242" y="67">Accès complet</text>

    <g transform="translate(286 130)">
      <rect class="surface shadow" width="250" height="128" rx="8"/>
      <text class="muted small" x="24" y="34">OFFRES ACTIVES</text>
      <text class="text h1" x="24" y="83">344</text>
      <rect class="mint" x="178" y="24" width="48" height="48" rx="8"/>
      <text class="green h3" x="194" y="55">O</text>
      <text class="green tiny" x="24" y="108">+28 ce mois</text>
    </g>
    <g transform="translate(554 130)">
      <rect class="surface shadow" width="250" height="128" rx="8"/>
      <text class="muted small" x="24" y="34">UTILISATEURS</text>
      <text class="text h1" x="24" y="83">1 248</text>
      <rect class="blue-soft" x="178" y="24" width="48" height="48" rx="8"/>
      <text class="text h3" x="194" y="55">U</text>
      <text fill="#436ca8" class="tiny" x="24" y="108">+64 ce mois</text>
    </g>
    <g transform="translate(822 130)">
      <rect class="surface shadow" width="250" height="128" rx="8"/>
      <text class="muted small" x="24" y="34">SOURCES ACTIVES</text>
      <text class="text h1" x="24" y="83">6</text>
      <rect class="yellow-soft" x="178" y="24" width="48" height="48" rx="8"/>
      <text class="text h3" x="195" y="55">S</text>
      <text class="muted tiny" x="24" y="108">Toutes opérationnelles</text>
    </g>
    <g transform="translate(1090 130)">
      <rect class="surface shadow" width="296" height="128" rx="8"/>
      <text class="muted small" x="24" y="34">DOUBLONS BLOQUÉS</text>
      <text class="text h1" x="24" y="83">87</text>
      <rect class="coral-soft" x="224" y="24" width="48" height="48" rx="8"/>
      <text class="coral h3" x="241" y="55">D</text>
      <text class="coral tiny" x="24" y="108">Pipeline protégé</text>
    </g>

    <rect class="surface shadow" x="286" y="292" width="1100" height="378" rx="8"/>
    <text class="text h3" x="314" y="334">Répartition des opportunités</text>
    <text class="muted small" x="314" y="358">Catégories principales actuellement actives</text>
    <line class="line" x1="332" y1="610" x2="1354" y2="610"/>
    <rect class="green" x="366" y="410" width="92" height="200" rx="4"/>
    <rect fill="#5aa98d" x="506" y="492" width="92" height="118" rx="4"/>
    <rect class="yellow" x="646" y="530" width="92" height="80" rx="4"/>
    <rect class="coral" x="786" y="565" width="92" height="45" rx="4"/>
    <rect fill="#7b93bd" x="926" y="465" width="92" height="145" rx="4"/>
    <rect fill="#9379b8" x="1066" y="550" width="92" height="60" rx="4"/>
    <rect fill="#73827d" x="1206" y="576" width="92" height="34" rx="4"/>
    <text class="muted tiny" x="388" y="638">Emploi</text>
    <text class="muted tiny" x="527" y="638">Formation</text>
    <text class="muted tiny" x="669" y="638">Bourse</text>
    <text class="muted tiny" x="809" y="638">Concours</text>
    <text class="muted tiny" x="950" y="638">Stage</text>
    <text class="muted tiny" x="1084" y="638">Recherche</text>
    <text class="muted tiny" x="1230" y="638">Autre</text>

    <rect class="surface shadow" x="286" y="700" width="1100" height="544" rx="8"/>
    <text class="text h3" x="314" y="744">Dernières offres importées</text>
    <rect fill="#f3f6f5" x="1016" y="716" width="220" height="44" rx="6"/>
    <text class="muted small" x="1042" y="743">Rechercher une offre</text>
    <rect class="green" x="1250" y="716" width="108" height="44" rx="6"/>
    <text class="white small" x="1278" y="743">Ajouter</text>
    <rect fill="#f3f6f5" x="310" y="782" width="1052" height="44"/>
    <text class="muted tiny" x="330" y="809">TITRE</text>
    <text class="muted tiny" x="760" y="809">CATÉGORIE</text>
    <text class="muted tiny" x="900" y="809">SOURCE</text>
    <text class="muted tiny" x="1080" y="809">STATUT</text>
    <text class="muted tiny" x="1254" y="809">ACTIONS</text>
    <g>
      <text class="text small" x="330" y="862">Comptable confirmé H/F</text>
      <text class="muted tiny" x="330" y="880">Ajoutée aujourd'hui à 10:35</text>
      <rect class="mint" x="746" y="846" width="82" height="28" rx="14"/>
      <text class="green tiny" x="766" y="864">EMPLOI</text>
      <text class="text small" x="900" y="864">Emploi.cm</text>
      <rect class="mint" x="1072" y="846" width="76" height="28" rx="14"/>
      <text class="green tiny" x="1091" y="864">ACTIVE</text>
      <text class="green body" x="1260" y="866">•••</text>
    </g>
    <line class="line" x1="310" y1="900" x2="1362" y2="900"/>
    <g>
      <text class="text small" x="330" y="944">Concours administratif direct 2026</text>
      <text class="muted tiny" x="330" y="962">Ajoutée aujourd'hui à 10:34</text>
      <rect class="coral-soft" x="746" y="928" width="92" height="28" rx="14"/>
      <text class="coral tiny" x="764" y="946">CONCOURS</text>
      <text class="text small" x="900" y="946">MinaJobs</text>
      <rect class="mint" x="1072" y="928" width="76" height="28" rx="14"/>
      <text class="green tiny" x="1091" y="946">ACTIVE</text>
      <text class="green body" x="1260" y="948">•••</text>
    </g>
    <line class="line" x1="310" y1="982" x2="1362" y2="982"/>
    <g>
      <text class="text small" x="330" y="1026">GREAT Scholarships 2026–2027</text>
      <text class="muted tiny" x="330" y="1044">Ajoutée aujourd'hui à 10:31</text>
      <rect class="yellow-soft" x="746" y="1010" width="82" height="28" rx="14"/>
      <text class="text tiny" x="764" y="1028">BOURSE</text>
      <text class="text small" x="900" y="1028">Kamerpower</text>
      <rect class="mint" x="1072" y="1010" width="76" height="28" rx="14"/>
      <text class="green tiny" x="1091" y="1028">ACTIVE</text>
      <text class="green body" x="1260" y="1030">•••</text>
    </g>
    <line class="line" x1="310" y1="1064" x2="1362" y2="1064"/>
    <text class="muted small" x="330" y="1112">Affichage de 1 à 3 sur 344 offres</text>
    <rect class="mint" x="1150" y="1090" width="42" height="38" rx="5"/>
    <text class="green small" x="1167" y="1114">1</text>
    <rect class="surface" x="1200" y="1090" width="42" height="38" rx="5" stroke="#dce4e1"/>
    <text class="muted small" x="1217" y="1114">2</text>
    <rect class="surface" x="1250" y="1090" width="42" height="38" rx="5" stroke="#dce4e1"/>
    <text class="muted small" x="1267" y="1114">3</text>
  </g>

  <!-- MOBILE HOME -->
  <g id="Mobile-Accueil" transform="translate(80 2720)">
    <rect class="frame shadow" width="390" height="844" rx="24"/>
    <rect class="surface" width="390" height="66" rx="24"/>
    <rect class="green" x="20" y="18" width="30" height="30" rx="6"/>
    <text class="text small" x="62" y="39">OpportuniTech</text>
    <text class="text h3" x="338" y="40">☰</text>
    <rect class="green2" y="66" width="390" height="334"/>
    <text class="white tiny" x="22" y="112">OPPORTUNITÉS POUR VOTRE AVENIR</text>
    <text class="white h2" x="22" y="162">Construisez la prochaine</text>
    <text class="white h2" x="22" y="196">étape de votre parcours.</text>
    <text class="white small" x="22" y="232">Emplois, stages, bourses, concours</text>
    <text class="white small" x="22" y="250">et formations réunis au même endroit.</text>
    <rect class="surface" x="22" y="278" width="346" height="48" rx="6"/>
    <text class="muted small" x="42" y="307">Rechercher une opportunité</text>
    <rect class="yellow" x="22" y="336" width="346" height="46" rx="6"/>
    <text class="text small" x="152" y="365">Rechercher</text>
    <text class="text h3" x="22" y="444">Explorer par type</text>
    <g transform="translate(22 466)">
      <rect class="surface shadow" width="166" height="88" rx="8"/>
      <rect class="mint" x="14" y="14" width="34" height="34" rx="6"/>
      <text class="text small" x="58" y="34">Emplois</text>
      <text class="muted tiny" x="58" y="50">149 offres</text>
      <text class="green tiny" x="14" y="72">Explorer →</text>
    </g>
    <g transform="translate(202 466)">
      <rect class="surface shadow" width="166" height="88" rx="8"/>
      <rect class="blue-soft" x="14" y="14" width="34" height="34" rx="6"/>
      <text class="text small" x="58" y="34">Stages</text>
      <text class="muted tiny" x="58" y="50">13 offres</text>
      <text class="green tiny" x="14" y="72">Explorer →</text>
    </g>
    <g transform="translate(22 568)">
      <rect class="surface shadow" width="166" height="88" rx="8"/>
      <rect class="yellow-soft" x="14" y="14" width="34" height="34" rx="6"/>
      <text class="text small" x="58" y="34">Bourses</text>
      <text class="muted tiny" x="58" y="50">59 offres</text>
      <text class="green tiny" x="14" y="72">Explorer →</text>
    </g>
    <g transform="translate(202 568)">
      <rect class="surface shadow" width="166" height="88" rx="8"/>
      <rect class="coral-soft" x="14" y="14" width="34" height="34" rx="6"/>
      <text class="text small" x="58" y="34">Concours</text>
      <text class="muted tiny" x="58" y="50">6 offres</text>
      <text class="green tiny" x="14" y="72">Explorer →</text>
    </g>
    <text class="text h3" x="22" y="708">Dernières opportunités</text>
    <rect class="surface shadow" x="22" y="730" width="346" height="92" rx="8"/>
    <rect class="mint" x="36" y="744" width="52" height="52" rx="7"/>
    <text class="green small" x="52" y="775">EC</text>
    <text class="text small" x="102" y="758">Business Developer B2B</text>
    <text class="muted tiny" x="102" y="778">E-Santé Cameroun · Douala</text>
    <text class="green tiny" x="102" y="800">Voir l'offre →</text>
  </g>

  <!-- MOBILE LIST -->
  <g id="Mobile-Liste" transform="translate(510 2720)">
    <rect class="frame shadow" width="390" height="844" rx="24"/>
    <rect class="surface" width="390" height="66" rx="24"/>
    <rect class="green" x="20" y="18" width="30" height="30" rx="6"/>
    <text class="text small" x="62" y="39">OpportuniTech</text>
    <text class="text h3" x="338" y="40">☰</text>
    <text class="text h2" x="20" y="112">Opportunités</text>
    <text class="muted small" x="20" y="138">344 offres classées automatiquement</text>
    <rect class="surface shadow" x="20" y="162" width="350" height="48" rx="6"/>
    <text class="muted small" x="40" y="192">Rechercher</text>
    <rect class="mint" x="20" y="222" width="104" height="36" rx="18"/>
    <text class="green tiny" x="48" y="244">Tous les types</text>
    <rect class="surface" x="134" y="222" width="112" height="36" rx="18" stroke="#dce4e1"/>
    <text class="muted tiny" x="159" y="244">Catégories</text>
    <rect class="surface" x="256" y="222" width="114" height="36" rx="18" stroke="#dce4e1"/>
    <text class="muted tiny" x="281" y="244">Plus récentes</text>
    <g transform="translate(20 280)">
      <rect class="surface shadow" width="350" height="148" rx="8"/>
      <rect class="mint" x="14" y="14" width="48" height="48" rx="7"/>
      <text class="green small" x="28" y="43">EC</text>
      <rect class="mint" x="262" y="14" width="72" height="24" rx="12"/>
      <text class="green tiny" x="280" y="30">EMPLOI</text>
      <text class="text small" x="76" y="30">Comptable confirmé H/F</text>
      <text class="muted tiny" x="76" y="49">Douala · Temps complet</text>
      <line class="line" x1="14" y1="78" x2="336" y2="78"/>
      <text class="muted tiny" x="14" y="102">Finance · Comptabilité</text>
      <text class="green small" x="246" y="124">Consulter →</text>
    </g>
    <g transform="translate(20 444)">
      <rect class="surface shadow" width="350" height="148" rx="8"/>
      <rect class="coral-soft" x="14" y="14" width="48" height="48" rx="7"/>
      <text class="coral small" x="28" y="43">IC</text>
      <rect class="coral-soft" x="250" y="14" width="84" height="24" rx="12"/>
      <text class="coral tiny" x="266" y="30">CONCOURS</text>
      <text class="text small" x="76" y="30">Concours Police 2026</text>
      <text class="muted tiny" x="76" y="49">Cameroun · Candidatures ouvertes</text>
      <line class="line" x1="14" y1="78" x2="336" y2="78"/>
      <text class="muted tiny" x="14" y="102">Fonction publique</text>
      <text class="green small" x="246" y="124">Consulter →</text>
    </g>
    <g transform="translate(20 608)">
      <rect class="surface shadow" width="350" height="148" rx="8"/>
      <rect class="yellow-soft" x="14" y="14" width="48" height="48" rx="7"/>
      <text class="text small" x="28" y="43">KP</text>
      <rect class="yellow-soft" x="262" y="14" width="72" height="24" rx="12"/>
      <text class="text tiny" x="278" y="30">BOURSE</text>
      <text class="text small" x="76" y="30">GREAT Scholarships</text>
      <text class="muted tiny" x="76" y="49">International · Universitaire</text>
      <line class="line" x1="14" y1="78" x2="336" y2="78"/>
      <text class="muted tiny" x="14" y="102">Date limite sur la source</text>
      <text class="green small" x="246" y="124">Consulter →</text>
    </g>
    <rect class="green" x="20" y="784" width="350" height="44" rx="6"/>
    <text class="white small" x="164" y="812">Suivant →</text>
  </g>

  <!-- LEGEND -->
  <g id="Design-System" transform="translate(960 2720)">
    <rect class="surface shadow" width="2080" height="560" rx="8"/>
    <text class="text h2" x="40" y="58">Système visuel OpportuniTech</text>
    <text class="muted body" x="40" y="88">Planche SVG éditable dans Figma · Desktop 1440 px · Mobile 390 px</text>
    <text class="text h3" x="40" y="140">Couleurs</text>
    <rect class="green2" x="40" y="164" width="118" height="72" rx="8"/>
    <text class="white tiny" x="66" y="258">#0B624A</text>
    <rect class="green" x="176" y="164" width="118" height="72" rx="8"/>
    <text class="green tiny" x="202" y="258">#087F5B</text>
    <rect class="yellow" x="312" y="164" width="118" height="72" rx="8"/>
    <text class="text tiny" x="338" y="258">#F4B942</text>
    <rect class="coral" x="448" y="164" width="118" height="72" rx="8"/>
    <text class="coral tiny" x="474" y="258">#E76F51</text>
    <rect fill="#17202a" x="584" y="164" width="118" height="72" rx="8"/>
    <text class="text tiny" x="610" y="258">#17202A</text>
    <rect class="frame" x="720" y="164" width="118" height="72" rx="8"/>
    <text class="muted tiny" x="746" y="258">#F7F9F8</text>

    <text class="text h3" x="920" y="140">Typographie</text>
    <text class="text h1" x="920" y="202">Inter Bold 42</text>
    <text class="text h2" x="920" y="244">Inter Bold 27</text>
    <text class="text h3" x="920" y="282">Inter Semibold 18</text>
    <text class="muted body" x="920" y="316">Inter Regular 15 pour les contenus</text>

    <text class="text h3" x="40" y="342">Principes</text>
    <text class="muted body" x="40" y="382">1. Priorité à la recherche, aux filtres et à la lisibilité des offres.</text>
    <text class="muted body" x="40" y="414">2. Une couleur fonctionnelle par catégorie, sans surcharger les cartes.</text>
    <text class="muted body" x="40" y="446">3. Rayon maximal de 8 px pour garder une interface professionnelle.</text>
    <text class="muted body" x="40" y="478">4. Les nouvelles annonces sont toujours affichées en premier.</text>
    <text class="muted body" x="40" y="510">5. Desktop dense et mobile orienté actions rapides.</text>
  </g>

  <!-- LOGIN DESKTOP -->
  <g id="Desktop-Connexion" transform="translate(80 3660)">
    <rect class="frame shadow" width="1440" height="820" rx="8"/>
    <rect class="surface" width="1440" height="76" rx="8"/>
    <rect class="green" x="42" y="22" width="34" height="34" rx="7"/>
    <path d="M50 40h18M59 31v18" stroke="#fff" stroke-width="4" stroke-linecap="round"/>
    <text class="text h3" x="88" y="46">OpportuniTech</text>
    <text class="muted body" x="1190" y="45">Pas encore inscrit ?</text>
    <text class="green small" x="1330" y="45">Créer un compte</text>

    <rect class="green2" x="0" y="76" width="610" height="744"/>
    <text class="white small" x="64" y="150">VOTRE ESPACE PERSONNEL</text>
    <text class="white h1" x="64" y="208">Retrouvez toutes vos</text>
    <text class="white h1" x="64" y="256">opportunités au même</text>
    <text class="white h1" x="64" y="304">endroit.</text>
    <text class="white body" x="64" y="352">Enregistrez vos recherches, publiez vos annonces et</text>
    <text class="white body" x="64" y="378">suivez votre activité depuis un espace simple et sécurisé.</text>
    <g transform="translate(64 420)">
      <rect fill="#167a5d" width="480" height="70" rx="8"/>
      <circle cx="36" cy="35" r="16" fill="#f4b942"/>
      <path d="M29 35l5 5 10-12" fill="none" stroke="#17202a" stroke-width="3" stroke-linecap="round" stroke-linejoin="round"/>
      <text class="white body" x="68" y="32">Accédez à vos offres publiées</text>
      <text class="white small" x="68" y="52">Modification, statut et statistiques</text>
    </g>
    <g transform="translate(64 510)">
      <rect fill="#167a5d" width="480" height="70" rx="8"/>
      <circle cx="36" cy="35" r="16" fill="#f4b942"/>
      <path d="M29 35l5 5 10-12" fill="none" stroke="#17202a" stroke-width="3" stroke-linecap="round" stroke-linejoin="round"/>
      <text class="white body" x="68" y="32">Recevez vos notifications</text>
      <text class="white small" x="68" y="52">Expiration et actions administratives</text>
    </g>

    <g transform="translate(750 142)">
      <text class="text h1" x="0" y="42">Bon retour parmi nous</text>
      <text class="muted body" x="0" y="78">Connectez-vous pour accéder à votre espace OpportuniTech.</text>
      <text class="text small" x="0" y="132">Adresse e-mail</text>
      <rect class="surface" x="0" y="150" width="520" height="54" rx="6" stroke="#cad5d1" stroke-width="2"/>
      <text class="muted body" x="18" y="183">vous@exemple.com</text>
      <text class="text small" x="0" y="244">Mot de passe</text>
      <text class="green small" x="392" y="244">Mot de passe oublié ?</text>
      <rect class="surface" x="0" y="262" width="520" height="54" rx="6" stroke="#cad5d1" stroke-width="2"/>
      <text class="muted body" x="18" y="295">••••••••••••</text>
      <text class="muted body" x="482" y="295">◉</text>
      <rect class="surface" x="0" y="342" width="18" height="18" rx="3" stroke="#aebbb6"/>
      <text class="muted small" x="30" y="356">Rester connecté sur cet appareil</text>
      <rect class="green" x="0" y="392" width="520" height="54" rx="6"/>
      <text class="white small" x="212" y="425">Se connecter</text>
      <line class="line" x1="0" y1="488" x2="204" y2="488"/>
      <text class="muted tiny" x="224" y="492">OU</text>
      <line class="line" x1="262" y1="488" x2="520" y2="488"/>
      <rect class="surface" x="0" y="518" width="520" height="52" rx="6" stroke="#cad5d1"/>
      <text class="text small" x="172" y="550">Créer un nouveau compte</text>
      <text class="muted tiny" x="82" y="612">En vous connectant, vous acceptez les conditions d'utilisation.</text>
    </g>
  </g>

  <!-- REGISTER DESKTOP -->
  <g id="Desktop-Inscription" transform="translate(1600 3660)">
    <rect class="frame shadow" width="1440" height="820" rx="8"/>
    <rect class="surface" width="1440" height="76" rx="8"/>
    <rect class="green" x="42" y="22" width="34" height="34" rx="7"/>
    <text class="text h3" x="88" y="46">OpportuniTech</text>
    <text class="muted body" x="1192" y="45">Déjà inscrit ?</text>
    <text class="green small" x="1284" y="45">Se connecter</text>

    <g transform="translate(90 122)">
      <text class="text h1" x="0" y="42">Créez votre compte</text>
      <text class="muted body" x="0" y="78">Quelques informations suffisent pour rejoindre OpportuniTech.</text>
      <text class="text small" x="0" y="132">Nom complet</text>
      <rect class="surface" x="0" y="150" width="520" height="54" rx="6" stroke="#cad5d1" stroke-width="2"/>
      <text class="muted body" x="18" y="183">Votre nom et prénom</text>
      <text class="text small" x="0" y="236">Adresse e-mail</text>
      <rect class="surface" x="0" y="254" width="520" height="54" rx="6" stroke="#cad5d1" stroke-width="2"/>
      <text class="muted body" x="18" y="287">vous@exemple.com</text>
      <text class="text small" x="0" y="340">Mot de passe</text>
      <rect class="surface" x="0" y="358" width="250" height="54" rx="6" stroke="#cad5d1" stroke-width="2"/>
      <text class="muted body" x="18" y="391">8 caractères minimum</text>
      <text class="text small" x="270" y="340">Confirmation</text>
      <rect class="surface" x="270" y="358" width="250" height="54" rx="6" stroke="#cad5d1" stroke-width="2"/>
      <text class="muted body" x="288" y="391">Répéter le mot de passe</text>
      <rect class="surface" x="0" y="444" width="18" height="18" rx="3" stroke="#aebbb6"/>
      <text class="muted small" x="30" y="458">J'accepte les conditions d'utilisation et la politique de confidentialité.</text>
      <rect class="green" x="0" y="496" width="520" height="54" rx="6"/>
      <text class="white small" x="202" y="529">Créer mon compte</text>
      <text class="muted small" x="132" y="592">Déjà membre ?</text>
      <text class="green small" x="234" y="592">Se connecter à mon espace</text>
    </g>

    <rect class="green2" x="730" y="76" width="710" height="744"/>
    <text class="white small" x="790" y="150">REJOIGNEZ OPPORTUNITECH</text>
    <text class="white h1" x="790" y="220">Un seul compte pour avancer</text>
    <text class="white h1" x="790" y="272">dans votre parcours.</text>
    <text class="white body" x="790" y="326">Cherchez des opportunités et publiez vos propres annonces</text>
    <text class="white body" x="790" y="352">depuis une interface conçue pour le marché camerounais.</text>
    <rect fill="#167a5d" x="790" y="420" width="560" height="188" rx="8"/>
    <text class="white h3" x="824" y="462">Ce que vous obtenez</text>
    <circle cx="832" cy="500" r="5" fill="#f4b942"/>
    <text class="white body" x="850" y="506">Accès gratuit aux offres et aux détails</text>
    <circle cx="832" cy="538" r="5" fill="#f4b942"/>
    <text class="white body" x="850" y="544">Publication et gestion de vos annonces</text>
    <circle cx="832" cy="576" r="5" fill="#f4b942"/>
    <text class="white body" x="850" y="582">Notifications et suivi des expirations</text>
    <text class="white small" x="790" y="668">Sources publiques vérifiées</text>
    <text class="white h2" x="790" y="706">6 sources · 344 opportunités</text>
  </g>

  <!-- LOGOUT DESKTOP -->
  <g id="Desktop-Deconnexion" transform="translate(80 4540)">
    <rect class="frame shadow" width="1440" height="560" rx="8"/>
    <rect class="surface" width="1440" height="76" rx="8"/>
    <rect class="green" x="42" y="22" width="34" height="34" rx="7"/>
    <text class="text h3" x="88" y="46">OpportuniTech</text>
    <text class="muted body" x="1200" y="45">Aminata M.</text>
    <circle class="mint" cx="1350" cy="38" r="20"/>
    <text class="green small" x="1340" y="43">AM</text>
    <rect fill="#17202a" opacity=".42" x="0" y="76" width="1440" height="484"/>
    <rect class="surface shadow" x="470" y="142" width="500" height="340" rx="8"/>
    <rect class="coral-soft" x="686" y="178" width="68" height="68" rx="34"/>
    <path d="M706 212h28M720 198v28" transform="rotate(45 720 212)" stroke="#e76f51" stroke-width="4" stroke-linecap="round"/>
    <text class="text h2" x="578" y="294">Se déconnecter ?</text>
    <text class="muted body" x="552" y="332">Vous devrez saisir à nouveau vos identifiants</text>
    <text class="muted body" x="607" y="356">pour accéder à votre espace.</text>
    <rect class="surface" x="522" y="398" width="190" height="50" rx="6" stroke="#cad5d1" stroke-width="2"/>
    <text class="text small" x="585" y="428">Annuler</text>
    <rect class="coral" x="728" y="398" width="190" height="50" rx="6"/>
    <text class="white small" x="778" y="428">Se déconnecter</text>
  </g>

  <!-- MOBILE LOGIN -->
  <g id="Mobile-Connexion" transform="translate(1600 4540)">
    <rect class="frame shadow" width="390" height="650" rx="24"/>
    <rect class="surface" width="390" height="66" rx="24"/>
    <rect class="green" x="20" y="18" width="30" height="30" rx="6"/>
    <text class="text small" x="62" y="39">OpportuniTech</text>
    <text class="green tiny" x="302" y="39">S'inscrire</text>
    <text class="text h2" x="24" y="122">Bon retour</text>
    <text class="muted small" x="24" y="150">Connectez-vous à votre espace.</text>
    <text class="text small" x="24" y="198">Adresse e-mail</text>
    <rect class="surface" x="24" y="212" width="342" height="50" rx="6" stroke="#cad5d1"/>
    <text class="muted small" x="42" y="243">vous@exemple.com</text>
    <text class="text small" x="24" y="306">Mot de passe</text>
    <text class="green tiny" x="248" y="306">Mot de passe oublié ?</text>
    <rect class="surface" x="24" y="320" width="342" height="50" rx="6" stroke="#cad5d1"/>
    <text class="muted small" x="42" y="351">••••••••••</text>
    <rect class="surface" x="24" y="398" width="16" height="16" rx="3" stroke="#aebbb6"/>
    <text class="muted tiny" x="50" y="410">Rester connecté</text>
    <rect class="green" x="24" y="444" width="342" height="50" rx="6"/>
    <text class="white small" x="140" y="475">Se connecter</text>
    <line class="line" x1="24" y1="532" x2="366" y2="532"/>
    <text class="muted small" x="76" y="570">Pas encore de compte ?</text>
    <text class="green small" x="231" y="570">S'inscrire</text>
  </g>

  <!-- MOBILE REGISTER -->
  <g id="Mobile-Inscription" transform="translate(2030 4540)">
    <rect class="frame shadow" width="390" height="650" rx="24"/>
    <rect class="surface" width="390" height="66" rx="24"/>
    <rect class="green" x="20" y="18" width="30" height="30" rx="6"/>
    <text class="text small" x="62" y="39">OpportuniTech</text>
    <text class="green tiny" x="290" y="39">Connexion</text>
    <text class="text h2" x="24" y="112">Créer un compte</text>
    <text class="muted small" x="24" y="138">Rejoignez gratuitement la plateforme.</text>
    <text class="text tiny" x="24" y="178">NOM COMPLET</text>
    <rect class="surface" x="24" y="190" width="342" height="46" rx="6" stroke="#cad5d1"/>
    <text class="muted small" x="42" y="219">Votre nom et prénom</text>
    <text class="text tiny" x="24" y="272">ADRESSE E-MAIL</text>
    <rect class="surface" x="24" y="284" width="342" height="46" rx="6" stroke="#cad5d1"/>
    <text class="muted small" x="42" y="313">vous@exemple.com</text>
    <text class="text tiny" x="24" y="366">MOT DE PASSE</text>
    <rect class="surface" x="24" y="378" width="342" height="46" rx="6" stroke="#cad5d1"/>
    <text class="muted small" x="42" y="407">8 caractères minimum</text>
    <rect class="surface" x="24" y="450" width="16" height="16" rx="3" stroke="#aebbb6"/>
    <text class="muted tiny" x="50" y="462">J'accepte les conditions d'utilisation.</text>
    <rect class="green" x="24" y="494" width="342" height="50" rx="6"/>
    <text class="white small" x="126" y="525">Créer mon compte</text>
    <text class="muted small" x="82" y="584">Déjà membre ?</text>
    <text class="green small" x="188" y="584">Se connecter</text>
  </g>

  <!-- MOBILE LOGOUT -->
  <g id="Mobile-Deconnexion" transform="translate(2460 4540)">
    <rect class="frame shadow" width="390" height="650" rx="24"/>
    <rect class="surface" width="390" height="66" rx="24"/>
    <rect class="green" x="20" y="18" width="30" height="30" rx="6"/>
    <text class="text small" x="62" y="39">OpportuniTech</text>
    <circle class="mint" cx="340" cy="33" r="18"/>
    <text class="green tiny" x="331" y="37">AM</text>
    <rect fill="#17202a" opacity=".42" y="66" width="390" height="584"/>
    <rect class="surface shadow" x="24" y="168" width="342" height="316" rx="8"/>
    <rect class="coral-soft" x="145" y="198" width="66" height="66" rx="33"/>
    <path d="M164 231h28M178 217v28" transform="rotate(45 178 231)" stroke="#e76f51" stroke-width="4" stroke-linecap="round"/>
    <text class="text h2" x="93" y="310">Se déconnecter ?</text>
    <text class="muted small" x="57" y="342">Vous devrez vous identifier de nouveau.</text>
    <rect class="surface" x="48" y="382" width="126" height="46" rx="6" stroke="#cad5d1"/>
    <text class="text small" x="86" y="410">Annuler</text>
    <rect class="coral" x="190" y="382" width="152" height="46" rx="6"/>
    <text class="white small" x="218" y="410">Déconnexion</text>
  </g>
</svg>
